<svg xmlns="http://www.w3.org/2000/svg" width="360" height="319" viewBox="0 0 1841 1630"><path fill="#213041" d="M923.574 742.956c19.273-.577 41.42-.031 60.88.002l119.726-.087 85.85-.087c14.64.035 30.46-1.099 44.96.919 1.87.26 4.06.533 5.68 1.589 11.15 7.262 62.41 60.02 70.97 71.568a738 738 0 0 1-.32 78.299c-7.34 8.59-17.58 18.658-25.65 27.037a2710 2710 0 0 1-49.79 50.733c-8.95 8.893-25.09 24.024-32.49 33.071l-94.04-.35-1.28-3.15c-14.78-35.941-39.77-63.748-76.21-78.77a133.31 133.31 0 0 0-102.173.234c-28.806 12.273-58.715 38.367-70.38 67.545-1.409 2.998-5.146 13.671-7.729 13.951-8.729.99-20.717.54-29.435.57l-55.176.27c-4.311-8.53-7.51-17.781-12.33-25.988-25.144-42.798-72.34-69.353-122.186-66.417-19.633 1.16-34.011 6.043-52.247 12.942-13.133-7.148-40.39-28.321-51.999-37.907.464-23.782-.018-46.84.007-70.536 84.226.569 168.455.615 252.681.125l77.44-.039c14.781.008 31.552.397 46.202-.312 3.512 4.05 7.405 8.185 11.182 12 14.429 14.547 28.228 30.611 43.421 44.285 9.477-.358 21.959.538 31.841.709-9.08-9.679-19.787-19.242-28.976-28.968-12.903-13.651-25.752-26.858-39.099-40.096.53-18.837-.724-45.217.67-63.142m246.676 129.309c7.89 1.262 25.65.841 34.35.857 21.11-.031 42.22.07 63.34.296 3.94-.078 3.16.537 5.76-1.417 4.49-8.831 3.1-29.755 2.72-40.322-13.13-16.166-29.99-33.485-46.68-45.835-3.08-2.289-18.51-2.165-22.94-2.009-29.81 1.02-61.66-1.456-91.17.42-3.59 1.799-7.52 4.299-8.98 8.27-.75 2.033-.67 3.902.26 5.856 3.97 8.348 54.38 65.077 63.34 73.884"/><path fill="#213041" d="M626.342 936.556c61.076-7.055 116.248 36.887 123.032 97.994 6.785 61.1-37.404 116.08-98.54 122.6-60.754 6.47-115.313-37.38-122.055-98.11-6.742-60.725 36.869-115.476 97.563-122.484m20.187 167.334c31.637-4.14 53.878-33.21 49.591-64.83s-33.467-53.718-65.063-49.279c-31.384 4.407-53.305 33.349-49.047 64.749 4.258 31.41 33.094 53.47 64.519 49.36"/><path fill="#213041" d="M968.373 936.688c60.927-7.016 115.967 36.794 122.797 97.752 6.83 60.95-37.15 115.85-98.119 122.5-60.709 6.62-115.329-37.13-122.13-97.82-6.802-60.696 36.783-115.447 97.452-122.432m21.602 167.152c31.345-4.82 52.925-34.04 48.315-65.41-4.6-31.39-33.66-53.166-65.065-48.782-31.725 4.431-53.77 33.842-49.121 65.532 4.648 31.68 34.216 53.53 65.871 48.66"/><path fill="#213041" d="m1256.21 984.034 2.04.42c3.49 2.531 5.21 6.705 7.08 10.466 48.13 97-46.01 193.42-145.05 152.11-11.82-5.2-22.13-12.79-31.53-21.53 14.68-20.12 23.81-43.95 26.12-69.34.64-6.97-1.88-19.94.88-26.65 4.11-2.46 84.04-.54 95.43-.39 14.34-11.13 33.24-31.147 45.03-45.086"/><path fill="#213041" d="M542.401 742.364q102.112.771 204.227.29l153.413-.116c-.134 17.89.414 35.722.156 53.71-3.967.389-10.607.272-14.764.319l-229.176.062c-42.497.047-85.606.802-128.035.39-.088-17.42-7.01-52.145 14.179-54.655"/><path fill="#213041" d="m1163.97 437.364.9-.126c6.3-.915 11.4-.656 17.13 2.576 5.24 2.927 9 7.932 10.35 13.779 3.41 14.678-6.97 24.627-20.35 27.796l-9.07-2.502c-14.75 16.415-33.03 33.916-48.84 49.451 11.97 13.585 73.33 69.526 75.76 80.084.29 1.259-.37 2.191-1.08 3.2-3.87 5.478-18.2 7.558-24.4 8.554-37.74 6.074-72.93-5.12-103.49-27.188-20.33-15.846-35.56-32.725-45.51-56.704a134.7 134.7 0 0 1-7.93-76.419c1.39-7.623 2.42-19.258 10.56-22.249 7.65.015 27.38 23.47 34.52 30.23 16.45 15.588 32.12 32.361 48.55 48.044a1828 1828 0 0 0 49.22-48.528c-2.96-13.504-1.14-25.095 13.68-29.998"/><path fill="#213041" d="M1037.07 596.13c12.07 9.001 27.67 21.695 41.57 27.96-.48 18.308.15 39.457.52 57.843 7.23 1.399 14.59 1.205 20.24 7.038 6.14 6.346 4.57 21.993 4.45 30.89-7.73.432-19.42.081-27.44.079l-64.55-.119c-.26-3.409-.49-6.821-.7-10.235-1.19-20.658 6.82-25.893 25.97-26.455-.46-10.349-2.82-82.123-.06-87.001"/><path fill="#213041" d="M160.225 1479.24q2.636 5.1 4.658 10.81 1.055-2.9 2.197-5.62 1.231-2.82 2.637-5.36l100.107-176.93q1.406-2.37 2.813-2.9 1.494-.53 4.043-.53h12.744v254.71h-16.172v-217.09q0-4.66.527-9.93l-100.283 178.07q-2.461 4.65-7.207 4.65h-2.812q-4.571 0-7.207-4.65L53.262 1326.22q.527 5.28.527 10.11v217.09H37.793v-254.71h12.568q2.55 0 4.043.53 1.582.53 2.989 2.9zm264.398-107.84q19.249 0 34.454 6.59t25.664 18.63 15.908 29.1q5.537 16.96 5.537 38.05t-5.537 38.06q-5.449 16.87-15.908 28.91-10.459 12.05-25.664 18.55t-34.454 6.5q-19.248 0-34.453-6.5t-25.752-18.55q-10.546-12.04-16.084-28.91-5.449-16.97-5.449-38.06t5.449-38.05q5.538-17.06 16.084-29.1 10.547-12.04 25.752-18.63t34.453-6.59m0 170.86q15.997 0 27.95-5.45 12.041-5.54 20.039-15.73 7.998-10.29 11.953-24.79t3.955-32.52q0-17.84-3.955-32.34-3.955-14.59-11.953-24.96t-20.039-15.91q-11.953-5.63-27.95-5.63t-28.037 5.63q-11.953 5.54-19.951 15.91t-12.041 24.96q-4.043 14.5-4.043 32.34 0 18.02 4.043 32.52t12.041 24.79q7.998 10.19 19.951 15.73 12.041 5.45 28.037 5.45m194.761-170.86q19.248 0 34.453 6.59t25.664 18.63 15.908 29.1q5.537 16.96 5.537 38.05t-5.537 38.06q-5.449 16.87-15.908 28.91-10.459 12.05-25.664 18.55t-34.453 6.5-34.453-6.5-25.752-18.55q-10.547-12.04-16.084-28.91-5.449-16.97-5.449-38.06t5.449-38.05q5.537-17.06 16.084-29.1t25.752-18.63 34.453-6.59m0 170.86q15.996 0 27.949-5.45 12.041-5.54 20.039-15.73 7.998-10.29 11.953-24.79t3.955-32.52q0-17.84-3.955-32.34-3.955-14.59-11.953-24.96t-20.039-15.91q-11.953-5.63-27.949-5.63t-28.037 5.63q-11.953 5.54-19.951 15.91t-12.041 24.96q-4.043 14.5-4.043 32.34 0 18.02 4.043 32.52t12.041 24.79q7.998 10.19 19.951 15.73 12.041 5.45 28.037 5.45m126.557 11.16V1374.3h9.317q4.746 0 5.449 4.48l1.582 27.07q12.217-15.47 28.476-24.96 16.348-9.49 36.299-9.49 14.766 0 26.016 4.75 11.25 4.65 18.633 13.53 7.382 8.79 11.162 21.18 3.779 12.39 3.779 28.04v114.52h-17.051V1438.9q0-25.14-11.513-39.46-11.514-14.33-35.332-14.33-17.579 0-32.696 9.14-15.117 9.05-27.07 24.87v134.3zm196.518 0v-261.91h17.315v114.17q11.865-15.91 27.51-25.05 15.646-9.23 35.336-9.23 32.87 0 51.32 22.85 18.46 22.76 18.46 68.47 0 19.6-5.1 36.65-5.09 16.96-15.11 29.53-10.02 12.48-24.53 19.69-14.5 7.2-33.39 7.2-18.725 0-32.26-7.29-13.447-7.3-23.115-21.53l-1.143 21.97q-.527 4.48-4.834 4.48zm75.231-168.31q-17.75 0-32.164 9.23-14.414 9.14-25.752 25.49v94.57q10.283 15.46 22.676 21.71 12.392 6.15 28.65 6.15 15.82 0 27.69-5.71 11.86-5.81 19.86-16.35 8-10.55 12.04-25.14 4.13-14.68 4.13-32.34 0-39.99-14.76-58.8-14.77-18.81-42.37-18.81m132.32-10.81v114.52q0 25.14 11.51 39.46 11.51 14.33 35.16 14.33 17.4 0 32.52-8.88 15.11-8.96 27.24-24.78V1374.3h17.23v179.12h-9.49q-5.1 0-5.28-4.66l-1.58-26.63q-12.48 15.47-28.74 24.87-16.26 9.32-36.3 9.32-14.94 0-26.1-4.66-11.08-4.74-18.46-13.53t-11.16-21.18q-3.78-12.48-3.78-28.13V1374.3zm241.07-3.08q11.69 0 21.63 2.9 10.02 2.9 17.93 8.09h45.87v5.98q0 4.48-5.01 4.83l-27.15 2.02q5.01 6.86 7.73 15.38 2.73 8.53 2.73 18.28 0 12.92-4.75 23.47-4.66 10.55-13.01 18.02t-20.13 11.6q-11.68 4.13-25.84 4.13-15.55 0-28.12-4.66-7.56 4.31-11.87 10.29-4.3 5.88-4.3 11.51 0 7.73 5.36 11.86 5.45 4.14 14.33 6.07 8.87 1.84 20.3 2.37 11.42.53 23.2 1.14 11.87.62 23.29 2.29 11.43 1.58 20.31 5.62 8.96 4.05 14.32 11.34 5.36 7.3 5.36 19.43 0 11.16-5.62 21.35-5.54 10.29-16.09 18.2-10.46 7.91-25.4 12.65-14.94 4.84-33.48 4.84-18.9 0-33.14-3.87t-23.9-10.46q-9.58-6.59-14.42-15.2-4.83-8.62-4.83-18.37 0-14.24 9.31-24.44 9.41-10.28 25.76-15.9-8.97-3.08-14.33-8.79-5.27-5.8-5.27-16 0-3.78 1.4-7.91 1.41-4.22 4.31-8.26t6.94-7.65q4.05-3.6 9.49-6.41-12.83-7.39-19.95-19.6-7.12-12.31-7.12-28.66 0-13 4.57-23.46 4.66-10.55 13.01-18.11t20.22-11.69q11.95-4.22 26.36-4.22m66.36 194.24q0-8.44-4.39-13.53-4.4-5.19-11.78-8-7.38-2.9-17.05-4.04-9.58-1.24-20.13-1.76-10.54-.53-21.18-1.06-10.55-.61-19.77-2.19-6.86 2.72-12.75 6.23-5.8 3.52-9.93 7.92-4.13 4.39-6.5 9.66-2.29 5.37-2.29 11.69 0 7.91 4.04 14.59 4.05 6.77 11.87 11.69 7.82 5.01 19.16 7.82 11.34 2.91 26.1 2.91 13.71 0 25.49-3.08 11.78-2.99 20.48-8.61 8.79-5.54 13.71-13.28 4.92-7.73 4.92-16.96m-66.36-91.23q11.52 0 20.48-3.34 8.97-3.34 15.12-9.23 6.15-5.97 9.23-14.24 3.16-8.26 3.16-18.36 0-10.11-3.25-18.46-3.16-8.35-9.4-14.24-6.24-5.98-15.12-9.23t-20.22-3.25q-11.42 0-20.39 3.25-8.96 3.25-15.2 9.23-6.24 5.89-9.49 14.24-3.17 8.35-3.17 18.46 0 10.1 3.17 18.36 3.25 8.27 9.49 14.24 6.24 5.89 15.2 9.23 8.97 3.34 20.39 3.34m181.63-103.01q11.68 0 21.62 2.9 10.02 2.9 17.93 8.09h45.87v5.98q0 4.48-5 4.83l-27.16 2.02q5.01 6.86 7.73 15.38 2.73 8.53 2.73 18.28 0 12.92-4.75 23.47-4.66 10.55-13.01 18.02t-20.12 11.6q-11.69 4.13-25.84 4.13-15.56 0-28.13-4.66-7.56 4.31-11.87 10.29-4.3 5.88-4.3 11.51 0 7.73 5.36 11.86 5.45 4.14 14.33 6.07 8.87 1.84 20.3 2.37 11.42.53 23.2 1.14 11.87.62 23.29 2.29 11.43 1.58 20.31 5.62 8.96 4.05 14.32 11.34 5.36 7.3 5.36 19.43 0 11.16-5.62 21.35-5.54 10.29-16.09 18.2-10.46 7.91-25.4 12.65-14.94 4.84-33.48 4.84-18.9 0-33.14-3.87t-23.9-10.46q-9.58-6.59-14.42-15.2-4.83-8.62-4.83-18.37 0-14.24 9.31-24.44 9.41-10.28 25.76-15.9-8.97-3.08-14.33-8.79-5.27-5.8-5.27-16 0-3.78 1.4-7.91 1.41-4.22 4.31-8.26t6.94-7.65q4.05-3.6 9.5-6.41-12.84-7.39-19.96-19.6-7.11-12.31-7.11-28.66 0-13 4.57-23.46 4.65-10.55 13-18.11t20.22-11.69q11.95-4.22 26.37-4.22m66.35 194.24q0-8.44-4.39-13.53-4.4-5.19-11.78-8-7.38-2.9-17.05-4.04-9.58-1.24-20.13-1.76-10.54-.53-21.18-1.06-10.55-.61-19.77-2.19-6.86 2.72-12.75 6.23-5.8 3.52-9.93 7.92-4.13 4.39-6.5 9.66-2.29 5.37-2.29 11.69 0 7.91 4.04 14.59 4.05 6.77 11.87 11.69 7.82 5.01 19.16 7.82 11.34 2.91 26.1 2.91 13.71 0 25.49-3.08 11.78-2.99 20.48-8.61 8.79-5.54 13.71-13.28 4.92-7.73 4.92-16.96m-66.35-91.23q11.51 0 20.47-3.34 8.97-3.34 15.12-9.23 6.15-5.97 9.23-14.24 3.16-8.26 3.16-18.36 0-10.11-3.25-18.46-3.16-8.35-9.4-14.24-6.24-5.98-15.12-9.23t-20.21-3.25q-11.43 0-20.4 3.25-8.96 3.25-15.2 9.23-6.24 5.89-9.49 14.24-3.17 8.35-3.17 18.46 0 10.1 3.17 18.36 3.25 8.27 9.49 14.24 6.24 5.89 15.2 9.23 8.97 3.34 20.4 3.34m161.58 136.76q-1.06 2.55-2.82 4.13-1.67 1.67-4.92 1.67h-12.21l31.46-70.05-75.76-172.44h14.24q2.72 0 4.22 1.41 1.49 1.31 2.28 2.9l60.29 139.39q1.06 2.64 1.85 5.45t1.58 5.71q.88-2.9 1.85-5.71.96-2.81 2.11-5.45l59.59-139.39q.88-1.94 2.46-3.08 1.67-1.23 3.6-1.23h13.18z"/></svg>