<?xml version="1.0" encoding="utf-8" ?><svg xmlns="http://www.w3.org/2000/svg" xmlns:xlink="http://www.w3.org/1999/xlink" width="2048" height="2048" viewBox="0 0 2048 2048"><path fill="#213041" d="M1028.23 954.084C1052.98 953.344 1081.42 954.045 1106.41 954.087L1260.16 953.975L1370.4 953.864C1389.2 953.909 1409.52 952.452 1428.14 955.043C1430.54 955.378 1433.36 955.728 1435.44 957.084C1449.75 966.41 1515.58 1034.16 1526.58 1048.99C1528.22 1082.49 1528.08 1116.06 1526.16 1149.54C1516.74 1160.57 1503.59 1173.5 1493.23 1184.26C1472.2 1206.25 1450.88 1227.97 1429.29 1249.41C1417.79 1260.83 1397.06 1280.26 1387.56 1291.88L1266.8 1291.43L1265.15 1287.39C1246.18 1241.23 1214.08 1205.52 1167.29 1186.23C1125.25 1168.9 1078.04 1169.01 1036.08 1186.53C999.088 1202.29 960.68 1235.8 945.7 1273.27C943.89 1277.12 939.091 1290.82 935.774 1291.19C924.565 1292.46 909.17 1291.88 897.975 1291.92L827.119 1292.27C821.584 1281.31 817.475 1269.43 811.285 1258.89C778.996 1203.93 718.389 1169.83 654.377 1173.6C629.165 1175.09 610.702 1181.36 587.283 1190.22C570.418 1181.04 535.416 1153.85 520.508 1141.54C521.103 1111 520.485 1081.39 520.517 1050.96C628.678 1051.69 736.842 1051.75 845.003 1051.12L944.449 1051.07C963.431 1051.08 984.967 1051.58 1003.78 1050.67C1008.29 1055.87 1013.29 1061.18 1018.14 1066.08C1036.67 1084.76 1054.39 1105.39 1073.9 1122.95C1086.07 1122.49 1102.1 1123.64 1114.79 1123.86C1103.13 1111.43 1089.38 1099.15 1077.58 1086.66C1061.01 1069.13 1044.51 1052.17 1027.37 1035.17C1028.05 1010.98 1026.44 977.103 1028.23 954.084ZM1345 1120.14C1355.14 1121.76 1377.95 1121.22 1389.12 1121.24C1416.23 1121.2 1443.34 1121.33 1470.45 1121.62C1475.52 1121.52 1474.51 1122.31 1477.85 1119.8C1483.62 1108.46 1481.83 1081.59 1481.35 1068.02C1464.48 1047.26 1442.83 1025.02 1421.4 1009.16C1417.44 1006.22 1397.63 1006.38 1391.94 1006.58C1353.66 1007.89 1312.76 1004.71 1274.86 1007.12C1270.25 1009.43 1265.21 1012.64 1263.33 1017.74C1262.37 1020.35 1262.47 1022.75 1263.66 1025.26C1268.76 1035.98 1333.5 1108.83 1345 1120.14Z"/><path fill="#213041" d="M646.533 1202.7C724.965 1193.64 795.815 1250.07 804.527 1328.54C813.24 1407.01 756.494 1477.61 677.985 1485.98C599.966 1494.29 529.903 1437.98 521.245 1359.99C512.587 1282.01 568.591 1211.7 646.533 1202.7ZM672.456 1417.58C713.084 1412.27 741.645 1374.94 736.14 1334.33C730.635 1293.73 693.162 1265.35 652.587 1271.05C612.285 1276.71 584.134 1313.87 589.602 1354.2C595.07 1394.53 632.101 1422.86 672.456 1417.58Z"/><path fill="#213041" d="M1085.76 1202.87C1164 1193.86 1234.68 1250.12 1243.45 1328.4C1252.22 1406.67 1195.75 1477.17 1117.45 1485.71C1039.49 1494.21 969.348 1438.03 960.614 1360.09C951.88 1282.15 1007.85 1211.84 1085.76 1202.87ZM1113.5 1417.52C1153.75 1411.33 1181.46 1373.81 1175.55 1333.52C1169.64 1293.22 1132.32 1265.25 1091.99 1270.88C1051.25 1276.57 1022.94 1314.34 1028.91 1355.03C1034.88 1395.72 1072.85 1423.77 1113.5 1417.52Z"/><path fill="#213041" d="M1455.39 1263.67L1458.01 1264.21C1462.5 1267.46 1464.7 1272.82 1467.1 1277.65C1528.91 1402.22 1408.02 1526.04 1280.83 1472.99C1265.65 1466.31 1252.42 1456.56 1240.34 1445.34C1259.2 1419.5 1270.92 1388.9 1273.89 1356.29C1274.71 1347.34 1271.47 1330.69 1275.02 1322.07C1280.29 1318.91 1382.94 1321.37 1397.56 1321.57C1415.98 1307.27 1440.25 1281.57 1455.39 1263.67Z"/><path fill="#213041" d="M538.738 953.324C626.157 953.984 713.579 954.109 801 953.697L998.01 953.547C997.837 976.522 998.541 999.421 998.21 1022.52C993.116 1023.02 984.589 1022.87 979.25 1022.93L684.949 1023.01C630.375 1023.07 575.015 1024.04 520.529 1023.51C520.417 1001.14 511.528 956.548 538.738 953.324Z"/><path fill="#213041" d="M1336.94 561.651L1338.1 561.489C1346.18 560.315 1352.73 560.647 1360.1 564.797C1366.82 568.556 1371.65 574.983 1373.38 582.492C1377.76 601.341 1364.44 614.117 1347.25 618.187L1335.61 614.974C1316.66 636.054 1293.19 658.528 1272.89 678.477C1288.26 695.923 1367.05 767.761 1370.18 781.32C1370.55 782.936 1369.7 784.133 1368.79 785.429C1363.82 792.464 1345.41 795.134 1337.45 796.414C1288.99 804.214 1243.8 789.839 1204.56 761.5C1178.45 741.15 1158.89 719.475 1146.11 688.681C1133.26 657.652 1129.72 623.552 1135.93 590.546C1137.71 580.757 1139.03 565.816 1149.49 561.975C1159.31 561.994 1184.65 592.114 1193.82 600.796C1214.94 620.813 1235.07 642.352 1256.16 662.492C1277.63 642.121 1298.7 621.344 1319.37 600.174C1315.57 582.832 1317.91 567.948 1336.94 561.651Z"/><path fill="#213041" d="M1173.98 765.535C1189.48 777.093 1209.51 793.395 1227.36 801.44C1226.74 824.951 1227.56 852.109 1228.03 875.72C1237.31 877.517 1246.76 877.267 1254.02 884.758C1261.91 892.907 1259.89 913.001 1259.73 924.426C1249.81 924.981 1234.8 924.53 1224.5 924.528L1141.61 924.375C1141.27 919.997 1140.97 915.616 1140.71 911.232C1139.18 884.703 1149.47 877.981 1174.06 877.259C1173.47 863.969 1170.44 771.798 1173.98 765.535Z"/></svg>